<svg xmlns="http://www.w3.org/2000/svg" width="179.909" height="136.881" viewBox="0 0 179.909 136.881"><defs><style>.a{fill:#ea4335;}.b{fill:#4285f4;}</style></defs><g transform="translate(-6 -15.764)"><path class="a" d="M185.909,73.678V98.233c0,13.74-14.155,24.871-31.632,24.871s-31.632-11.131-31.632-24.871V87.023c-9.49,4.033-16.508,18.624-16.686,36.081H85.3c.1-1.048.138-2.115.138-3.2,0-18.762-13.483-33.965-30.11-33.965s-30.11,15.2-30.11,33.965c0,1.087.059,2.155.138,3.2H6V46H144.391V84.671c0,9.9,4.389,17.932,9.885,17.932s9.885-8.027,9.885-17.932V73.678Z" transform="translate(0 29.541)"/><path class="b" d="M75.226,15.764C37.352,15.764,6.6,39.955,6.01,71.587H144.439C143.848,39.955,113.1,15.764,75.226,15.764ZM47.433,59.595l-7.665-4.031L32.1,59.595l1.465-8.535-6.2-6.046,8.57-1.246L39.768,36,43.6,43.767l8.57,1.246-6.2,6.046Zm35.586,0-7.665-4.031-7.667,4.031,1.465-8.535-6.2-6.046,8.57-1.246L75.354,36l3.833,7.766,8.57,1.246-6.2,6.046Zm37.565,0-7.667-4.031-7.667,4.031,1.463-8.535-6.2-6.046,8.572-1.246L112.917,36l3.831,7.766,8.572,1.246-6.2,6.046Z" transform="translate(0.01 0)"/></g></svg>