<svg xmlns="http://www.w3.org/2000/svg" width="173.652" height="168.788" viewBox="0 0 173.652 168.788"><defs><style>.a{fill:#ea4335;}.b{fill:#4285f4;}</style></defs><g transform="translate(-1.902 -3.437)"><path class="a" d="M131.022,131.158c3.591-4.591,8.634-8.665,9.684-14.707.706-4.047.314-8.153.743-12.218.494-4.715,2.258-9.2,2.721-13.93a16,16,0,0,0-.487-6.959c-.855-2.416-2.743-3.93-3.3-6.5A34.193,34.193,0,0,1,140,70.873c-.044-1.251-.77-9.342,1.512-9.342,0,0,4.771,6.677,7.632,8.583l1.908-1.191s-8.583-12.639-8.583-15.5-114.022-.013-114.457,0c1.961-.047,5.768,23.247,6.056,25.307.717,5.105,1.412,10.33.875,15.486-.4,3.836-2.879,6.877-3.958,10.481-.9,3.006-.59,6.183-.59,9.29,0,1.645-3.275,5.283-4,6.864-.973,2.135-2.923,6.189-1.746,8.582,2.329,4.729,13.569,2.747,17.71,2.128.32-.049.824-9.235.911-10.179l6.677,5.365L60.44,115.122S36.6,95.957,57.579,71.158c0,0,19.075.59,31.476-4.5,2.914,4.855,7.211,9.15,8.8,14.7,1.2,4.2.3,9.277-.218,13.561-3.319,4.931-6.6,9.894-9.921,14.821-2.611,3.874-13.088,15.3-2.652,17.085,5.953,1.018,8.605.33,11.5-4.749,2.186-3.845,3.791-7.558,7.073-10.606,2.865-2.654,4.56-4.6,4.021-8.932-.931-7.462,4-9.958,9.3-14.309,0,0,6.082-9.537,1.313-14.308,0,0-.536-3.816,1.371-2.859,3.649,6.864,7.167,11.788,7.088,19.788-.049,4.648.694,9.4-.212,14-.519,2.645-1.578,5.181-1.926,7.857-.441,3.42-2.208,6.312-4.29,8.977-1.155,1.474-3.854,3-4.221,4.954-.477,2.514,1.794,3.673,3.324,5.461" transform="translate(18.251 39.724)"/><path class="a" d="M100.921,60.987c4.245,3.2,2.485,19.371.752,21.673s-3.271-9.495-7.516-12.7-4.764-7.019-3.03-9.321S96.675,57.786,100.921,60.987Z" transform="translate(72 45.105)"/><path class="b" d="M142.333,42.943c-5.622-3.4-20.86.948-20.86.948C88.546,63.648,68.79,47.654,68.79,47.654c-13.963-12.928-23.937-17.6-30.1-19.2a22.007,22.007,0,0,0-4.444-1.378c.3-10.974.43-23.637-2.151-23.637-2.656,0-7.449,13.4-9.843,24.583l-.285.1C18.346,24.979,11.4,10.928,11.4,6.73c0-.08.009-.16.009-.238-.025,0-.051,0-.076,0C6.72,7.253,4.271,15.762,5.868,25.5a29.839,29.839,0,0,0,4.713,12.371A22.14,22.14,0,0,0,7.638,48.909a22.459,22.459,0,0,0,.232,3.045c-.1.147-.2.285-.3.434.036.456.069.977.069,1.443,0,8.9-12.3,19.616-.88,26.878H19.187c3.277-2.534,6.577-4.7,9.518-7.714,11.31.251,16.566,14.976,16.566,14.976H161.72c1.54-5.446,2.405-9.15,2.405-13.729C164.125,59.137,154.8,46.2,142.333,42.943ZM66.973,80.3l-6.4-3.368-6.4,3.368,1.222-7.135L50.2,68.114l7.16-1.04,3.2-6.49,3.2,6.49,7.16,1.04-5.181,5.051Zm27.595,0-6.4-3.368-6.4,3.368,1.224-7.135L77.8,68.114l7.162-1.04,3.2-6.49,3.2,6.49,7.16,1.04-5.181,5.051Zm27.6,0-6.4-3.368L109.355,80.3l1.225-7.135L105.4,68.114l7.162-1.04,3.2-6.49,3.2,6.49,7.16,1.04-5.181,5.051Zm28.726,0-6.407-3.368L138.077,80.3l1.225-7.135-5.181-5.051,7.162-1.04,3.2-6.49,3.2,6.49,7.16,1.04-5.181,5.051Z" transform="translate(0 0)"/></g></svg>