<svg xmlns="http://www.w3.org/2000/svg" xmlns:xlink="http://www.w3.org/1999/xlink" width="537.752" height="154.4" viewBox="0 0 537.752 154.4"><defs><style>.a{fill:url(#a);}</style><linearGradient id="a" y1="0.5" x2="1" y2="0.5" gradientUnits="objectBoundingBox"><stop offset="0" stop-color="#4285f4"/><stop offset="1" stop-color="#ea4335"/></linearGradient></defs><path class="a" d="M916.3,744.975a53.012,53.012,0,0,1,3.5,20.8,54.033,54.033,0,0,1-7.1,25.7,45.13,45.13,0,0,1-18.5,17.9,85.713,85.713,0,0,1-40.8,10.2,71.069,71.069,0,0,1-22.1-3.9,36.639,36.639,0,0,1-16.9-11.3,39.545,39.545,0,0,1-7.5-15.3,37.137,37.137,0,0,1-.3-16.9,19.394,19.394,0,0,1,5.3-10.3,15.92,15.92,0,0,1,9.9-4.7,18.722,18.722,0,0,1,10.3,1.3,17.509,17.509,0,0,1,7.9,6.7q.2.4,2.1,3.8a23.171,23.171,0,0,0,3.5,5,21.271,21.271,0,0,0,22.6,4.2,12.715,12.715,0,0,0,7.8-7.2,13.71,13.71,0,0,0,.7-8.8,12,12,0,0,0-4.7-7.2q-3.4-2.4-15.8-6.2a53.01,53.01,0,0,1-19.2-10.8,35.079,35.079,0,0,1-10.8-15.7,41.165,41.165,0,0,1-2.1-18.5,43.527,43.527,0,0,1,6.3-17.7,39.346,39.346,0,0,1,13.6-13.5,12.644,12.644,0,0,0,1.4-.8q11.6-6.4,26.8-6.6a71.881,71.881,0,0,1,11,.9,64.3,64.3,0,0,1,11.7,3,29.17,29.17,0,0,1,10.2,6.1,16.81,16.81,0,0,1,5.3,9.4q1.8,9.4-5.2,15.3t-16.4,2.9q-1.2-.4-4.9-1.9a50.418,50.418,0,0,0-6.5-2.2,16.95,16.95,0,0,0-5.4-.5q-7.8.4-10.4,6a5.853,5.853,0,0,0,.2,6.4,11.376,11.376,0,0,0,5.7,4.1,41.881,41.881,0,0,0,9.3,1.9,43.43,43.43,0,0,1,7.4,1.2q13.6,3.6,20.8,10A43.838,43.838,0,0,1,916.3,744.975Zm122.9,31.4q-9.4-8.6-14.5-13.6t-10.8-11.3q-5.7-6.3-10.9-12.9a2.917,2.917,0,0,1,.4-4.2q1.2-1,8.1-7t11.7-10.4q4.8-4.4,9.8-9.3a62.729,62.729,0,0,0,6.4-6.9,17.709,17.709,0,0,0,2-14.6,19.16,19.16,0,0,0-3-6.3q-1.6-1.9-6-3.5a17.532,17.532,0,0,0-13,.2q-12,4.6-26.4,19.6-4.6,4.8-16.6,17.4a2.656,2.656,0,0,1-3.3.8,2.516,2.516,0,0,1-1.7-2.8q.2-12.8,0-18.2-.6-8.4-4.4-13.2a14.563,14.563,0,0,0-10.9-5.6,15.3,15.3,0,0,0-11.7,4.2,18.127,18.127,0,0,0-3.9,6.1,29.23,29.23,0,0,0-1.9,6.3q-.4,2.6-.8,7.4a8.4,8.4,0,0,0-.2,1.4q-1.4,15.2-1.8,28.8-.2,14,0,39.4,0,2-.1,8t0,9.5a40.243,40.243,0,0,0,1.2,8.1,23.024,23.024,0,0,0,3.3,7.8,17.578,17.578,0,0,0,25.4,3.4,15.617,15.617,0,0,0,5-9.3,96.139,96.139,0,0,0,1.6-12.7q.4-6.6,2-9.4,2.6-4.8,6.2-5.2t7.2,3.6a146.211,146.211,0,0,1,9.3,12.3q6.7,9.5,8.7,11.9a41.677,41.677,0,0,0,17.2,12.6,18.684,18.684,0,0,0,13.3.3,16.919,16.919,0,0,0,9.7-8.5Q1052.2,788.776,1039.2,776.375Zm104.4-102.4q-14.2-4-33.2-3.8-21.8.2-34,10-13.6,11-17,29a220.385,220.385,0,0,0-2.8,65q3.4,33.6,33.2,38.6a130.917,130.917,0,0,0,25.1,1.7,149.306,149.306,0,0,0,24.9-2.5,20.567,20.567,0,0,0,4.9-1.8,15.047,15.047,0,0,0,4-3,22.532,22.532,0,0,0,3-4,14.927,14.927,0,0,0,1.8-4.8,26.657,26.657,0,0,0,.5-5,17.313,17.313,0,0,0-3.9-10.2,17.963,17.963,0,0,0-9.1-5.8q-5.6-1.6-20-1-2.6.2-7.8,1t-7.4,1q-7.4.6-10.2-1.8-2.4-2.4-1.9-7.8t2.5-7.4a12.507,12.507,0,0,1,5.6-3.4,25.431,25.431,0,0,1,7.1-.7,32.3,32.3,0,0,0,5.1-.1q8-1.2,11.9-6.8a18.817,18.817,0,0,0,3.5-12.2q-.4-5.6-3.8-8a24.322,24.322,0,0,0-8.8-3.6q-1.6-.2-5.9-.4t-5.7-.4q-5.4-1-7.2-4.4a8.392,8.392,0,0,1-.4-5.8,9.769,9.769,0,0,1,2.8-5.2,15.883,15.883,0,0,1,9.6-4.2,110.81,110.81,0,0,1,15.5-.7,132.409,132.409,0,0,0,15.1-.5,18.011,18.011,0,0,0,7.8-2.6,17.253,17.253,0,0,0,5.8-5.8,14.417,14.417,0,0,0-1.5-17.3A17.647,17.647,0,0,0,1143.6,673.975Zm194.6,7.4q-7-7.2-17.4-4.6-10.8,2.8-13.6,15.2-7.8,34-12.4,52.6a36.147,36.147,0,0,1-4.8,10.8,8.786,8.786,0,0,1-2.8,3,5.07,5.07,0,0,1-4.6.2,9.356,9.356,0,0,1-3.2-3q-3.4-4.6-6-18-.8-4-1.1-5.4a41.867,41.867,0,0,0-1.4-4.5,14.941,14.941,0,0,0-2.8-5,15.743,15.743,0,0,0-4.3-3.3q-9.2-5.2-18.8.6-7.8,4.4-9.6,16-3,17.8-12,24.4a4.318,4.318,0,0,1-4.4,1q-3.4-1-6-10.4-.6-2.4-1.5-6.9t-1.3-6.1q-1-4.2-2.9-12.3t-2.3-9.7q-.6-2.6-2.1-10.3t-3-12.9a81.18,81.18,0,0,0-3.5-9.8q-2.8-6-7.2-8.6a14.848,14.848,0,0,0-12.4-1.4,14.61,14.61,0,0,0-9.8,8q-2.2,4.8-.4,15.4,9.6,57.4,9.8,58.2a161.938,161.938,0,0,0,6,23.4q4.2,13,9.4,20.2a32.921,32.921,0,0,0,23.7,14,34.233,34.233,0,0,0,26.7-7.8,35.423,35.423,0,0,0,7.4-8.6q2.2-2.6,4.3-2.4a5.842,5.842,0,0,1,3.9,2.4q1.8,2.4,4.4,5.6a31.8,31.8,0,0,0,12,8.8q12,4.6,23-1a47.182,47.182,0,0,0,18.4-17.2q8.6-13.6,14.2-34.8,4.4-16.8,13.2-57.6Q1345.194,688.579,1338.195,681.375Z" transform="translate(-805.769 -665.175)"/></svg>